<?xml version="1.0" encoding="utf-8"?>
<!-- Generator: Adobe Illustrator 16.0.0, SVG Export Plug-In . SVG Version: 6.00 Build 0)  -->
<!DOCTYPE svg PUBLIC "-//W3C//DTD SVG 1.1//EN" "http://www.w3.org/Graphics/SVG/1.1/DTD/svg11.dtd">
<svg version="1.1" id="Capa_1" xmlns="http://www.w3.org/2000/svg" xmlns:xlink="http://www.w3.org/1999/xlink" x="0px" y="0px"
	 width="595.279px" height="841.891px" viewBox="0 0 595.279 841.891" enable-background="new 0 0 595.279 841.891"
	 xml:space="preserve">
<g>
	<path d="M513.167,215.758l-30.793,20.528l-51.321-10.264l-30.793-10.264l-41.057,10.264l-30.793-10.264l20.527-41.057h41.058
		l40.236-20.117C461.262,169.929,489.334,190.642,513.167,215.758z"/>
	<path d="M277.091,174.701l-10.265,30.793l-30.793,10.264l-30.793,51.321l-51.32,30.793l-71.85,10.264v30.793l20.528,20.528v41.058
		l-30.791-20.529l-30.793-20.528l-17.859-53.681c30.74-73.257,89.504-131.168,163.2-160.841l29.15,19.502L277.091,174.701z"/>
	<polygon points="297.619,462.098 287.356,513.419 246.299,554.476 246.299,585.269 205.241,616.061 205.241,667.382 
		174.45,657.118 153.921,605.797 153.921,503.155 102.6,492.891 82.073,451.834 82.073,421.041 102.6,400.513 133.393,369.72 
		153.921,410.777 225.77,410.777 256.563,462.098 	"/>
	<path d="M557.303,275.598c56.032,99.963,49.647,223.226-16.423,316.855l-27.713-27.713v-41.058l-20.528-41.057l-20.527-41.057
		v-41.058l-30.793-20.528l-41.058,10.264l-71.849-30.793l-10.264-71.849l30.793-30.793h61.585l20.527,30.793l61.585,10.264
		l61.585-20.528L557.303,275.598z"/>
</g>
<g>
	<path d="M297.559,141.382c30.309,0,60.657,5.03,89.413,14.706l-1.224,0.612h-36.808c-6.818,0-13.051,3.852-16.1,9.95
		l-20.528,41.057c-2.334,4.667-2.527,10.117-0.53,14.938s5.987,8.538,10.938,10.188l20.621,6.875
		c-2.662,0.872-5.108,2.361-7.126,4.378l-30.793,30.793c-4.007,4.006-5.893,9.665-5.092,15.273l10.264,71.849
		c0.889,6.219,4.955,11.524,10.729,13.999l71.85,30.793c2.255,0.966,4.668,1.455,7.091,1.455c1.463,0,2.929-0.178,4.365-0.537
		l33.332-8.333l16.152,10.768v31.424c0,2.794,0.65,5.551,1.9,8.05l20.528,41.057l18.627,37.256v36.809
		c0,4.773,1.896,9.353,5.272,12.728l16.704,16.705c-11.207,14.209-23.726,27.279-37.351,38.983
		c-16.899,14.517-35.562,26.991-55.471,37.077c-39.095,19.805-82.973,30.273-126.893,30.273c-31.237,0-61.837-5.16-90.848-15.176
		c3.267-0.245,6.453-1.38,9.183-3.348c4.694-3.384,7.475-8.816,7.475-14.603v-42.321l33.857-25.393c4.533-3.399,7.2-8.734,7.2-14.4
		v-23.337l35.784-35.785c2.514-2.513,4.227-5.713,4.923-9.197l10.264-51.321c1.058-5.288-0.312-10.771-3.73-14.942
		c-3.419-4.17-8.527-6.588-13.92-6.588h-30.865l-25.55-42.582c-3.253-5.421-9.112-8.739-15.435-8.739h-60.724l-15.553-31.107
		c-2.587-5.175-7.505-8.791-13.216-9.718c-0.961-0.156-1.925-0.232-2.884-0.232c-4.734,0-9.325,1.87-12.727,5.272l-0.207,0.207
		c-0.498-3.941-2.291-7.631-5.13-10.471l-15.255-15.255v-7.726l56.394-8.056c2.375-0.34,4.659-1.15,6.716-2.385l51.32-30.793
		c2.533-1.52,4.654-3.64,6.174-6.174l27.367-45.611l24.477-8.159c5.375-1.792,9.593-6.009,11.384-11.384l10.264-30.793
		c1.665-4.994,1.06-10.467-1.656-14.977s-7.269-7.605-12.461-8.47l-47.519-7.919c21.219-5.081,42.968-7.643,65.025-7.644H297.559
		 M399.541,234.492l13.493,4.498c-0.824-0.116-1.662-0.175-2.507-0.175h-28.275L399.541,234.492 M510.24,239.344
		c7.316,8.548,14.105,17.541,20.32,26.914l-39.37,13.123l-49.482-8.247l-16.203-24.304c-1.627-2.44-3.795-4.406-6.288-5.78
		l6.146,2.048c0.709,0.236,1.431,0.428,2.162,0.574l51.321,10.264c1.172,0.234,2.354,0.35,3.53,0.35
		c3.527,0,7.006-1.038,9.984-3.023L510.24,239.344 M23.722,364.498l0.213,0.641c1.265,3.802,3.762,7.073,7.095,9.295l30.793,20.528
		l12.524,8.349l-5.003,5.003c-3.376,3.375-5.272,7.954-5.272,12.728v30.793c0,2.794,0.65,5.55,1.9,8.05L86.5,500.94
		c2.484,4.968,7.123,8.511,12.57,9.601l36.852,7.371v87.885c0,2.29,0.437,4.559,1.287,6.685l20.093,50.236
		c-7.111-4.142-14.075-8.614-20.868-13.408c-26.313-18.572-49.005-41.278-67.446-67.486C51.025,556.295,37.536,528.1,28.896,498.02
		s-12.17-61.135-10.493-92.302C19.151,391.82,20.93,378.055,23.722,364.498 M297.554,123.382c-37.693,0-75.456,7.157-111.198,21.552
		l29.15,19.502l61.585,10.264l-10.264,30.793l-30.794,10.264l-30.793,51.321l-51.32,30.793l-71.849,10.264v30.793l20.527,20.527
		v41.057h0.001l30.792-30.793l20.528,41.058h71.849l30.793,51.32h41.057l-10.264,51.321l-41.057,41.057v30.793l-41.058,30.793
		v51.321l-30.793-10.264l-20.527-51.321V503.155L102.6,492.891l-20.527-41.057v-30.793l20.528-20.529H102.6l-30.792-20.528
		l-30.793-20.528l-17.859-53.681c-53.959,128.763-11.167,277.728,102.898,358.241c52.152,36.808,112.053,54.491,171.377,54.491
		c93.453,0,185.468-43.892,243.45-126.053l-27.713-27.713v-41.058l-20.527-41.057l-20.528-41.057v-41.058l-30.793-20.527
		l-41.057,10.264l-71.85-30.793l-10.264-71.849l30.793-30.793h61.585l20.528,30.793l61.585,10.264l61.584-20.528l3.079-1.745
		c-12.111-21.739-26.943-41.846-44.136-59.84l-30.793,20.528l-51.321-10.264l-30.793-10.264l-41.057,10.264l-30.792-10.265
		l20.528-41.057h41.057l40.236-20.117C388.549,133.83,343.102,123.381,297.554,123.382L297.554,123.382z"/>
</g>
</svg>
